PathFileType	4	(X/Y/Z)	 s03c0401.trc
DataRate	CameraRate	NumFrames	NumMarkers	Units	OrigDataRate	OrigDataStartFrame	OrigNumFrames
200	200	5	52	mm	200	501	2000
Frame#	Time	racr			lacr			c7			jug			rlel			rdr			llel			ldr			s2			lic			ric			lasi			rasi			rpsi			lpsi			rgt			lgt			rth1			rth2			rth3			rth4			rlfc			rmfc			rsh1			rsh2			rsh3			rsh4			rlmal			rmmal			rcal			rtoe			rmt5			rmt1			lth1			lth2			lth4			lth3			llfc			lmfc			lsh1			lsh2			lsh3			lsh4			llmal			lmmal			lcal			ltoe			lmt1			lmt5			SBIKE			LBIKE			RBIKE			
		X1	Y1	Z1	X2	Y2	Z2	X3	Y3	Z3	X4	Y4	Z4	X5	Y5	Z5	X6	Y6	Z6	X7	Y7	Z7	X8	Y8	Z8	X9	Y9	Z9	X10	Y10	Z10	X11	Y11	Z11	X12	Y12	Z12	X13	Y13	Z13	X14	Y14	Z14	X15	Y15	Z15	X16	Y16	Z16	X17	Y17	Z17	X18	Y18	Z18	X19	Y19	Z19	X20	Y20	Z20	X21	Y21	Z21	X22	Y22	Z22	X23	Y23	Z23	X24	Y24	Z24	X25	Y25	Z25	X26	Y26	Z26	X27	Y27	Z27	X28	Y28	Z28	X29	Y29	Z29	X30	Y30	Z30	X31	Y31	Z31	X32	Y32	Z32	X33	Y33	Z33	X34	Y34	Z34	X35	Y35	Z35	X36	Y36	Z36	X37	Y37	Z37	X38	Y38	Z38	X39	Y39	Z39	X40	Y40	Z40	X41	Y41	Z41	X42	Y42	Z42	X43	Y43	Z43	X44	Y44	Z44	X45	Y45	Z45	X46	Y46	Z46	X47	Y47	Z47	X48	Y48	Z48	X49	Y49	Z49	X50	Y50	Z50	X51	Y51	Z51	X52	Y52	Z52	
501	2.5050	786.956221	1480.107295	-36.710040	774.668577	1525.697999	-370.807247	704.340250	1587.327715	-197.844034	749.726838	1420.011717	-209.715569	650.157427	1233.966121	88.140522	750.333650	986.202332	4.948457	674.796324	1260.218564	-472.986270	748.808570	974.344334	-426.729317	199.598153	1269.326989	-214.777261	372.781293	1306.280164	-396.273767	376.723848	1267.259457	-36.320078	391.718328	1230.724874	-363.265021	404.459940	1200.228662	-88.712331	233.960089	1309.443656	-164.316444	232.532446	1320.161238	-246.554525	297.532020	1153.883872	-36.101380	319.145175	1203.846486	-428.149874	321.582060	1001.702320	-22.578605	365.241111	924.314018	-21.978284	368.648049	839.401978	-35.347230	400.487142	934.516516	-25.930018	388.270038	715.272415	-66.502990	403.587177	698.709187	-176.136176	325.866539	559.521009	-38.454190	318.148783	470.989780	-49.907779	266.601460	399.118129	-52.248038	347.704072	462.812243	-74.192433	209.647153	280.667887	-73.179509	233.728507	286.255217	-154.487901	138.177322	265.500374	-103.648083	421.181936	132.431761	-111.327048	306.735799	166.807701	-38.458927	336.097018	174.171625	-150.970188	415.233283	1092.319065	-462.169843	487.826232	1046.077554	-472.684910	514.682025	1068.313612	-461.298700	527.626438	966.669542	-481.959382	607.470911	860.804640	-476.748432	612.239731	840.620682	-348.184941	455.653336	778.483839	-486.035056	397.115569	721.739892	-459.202483	309.647735	699.830653	-446.776390	415.178146	697.206286	-435.475031	197.998496	643.866141	-419.675384	236.493684	637.318285	-330.391452	122.082834	659.151739	-367.985495	328.368518	430.716037	-351.744263	259.277897	497.161060	-313.254833	231.803828	497.192000	-427.908426	-213.558119	946.552611	-229.480305	-6.059224	84.037315	-435.017789	-11.437309	81.016213	-34.497729	
502	2.5100	788.710547	1481.316752	-39.457266	775.680697	1526.246785	-373.650136	705.932368	1588.565593	-200.679432	750.866632	1421.118448	-212.081815	652.533420	1235.048261	85.709877	750.840303	985.618206	4.942950	675.218548	1260.323420	-474.719654	748.738843	974.410117	-426.263268	200.230854	1272.007569	-214.031421	372.463784	1308.571414	-396.378978	378.616412	1269.211621	-36.622090	391.785822	1233.173043	-363.174120	405.345622	1202.240372	-89.321478	235.082298	1311.593261	-163.692748	233.209779	1322.949608	-245.675679	297.467084	1155.364169	-36.299705	319.451968	1206.964018	-428.154577	319.663424	1003.356805	-22.904735	362.378916	925.488552	-22.436954	365.077608	840.470651	-35.710649	397.833978	935.279096	-26.525173	382.810378	716.348127	-67.282838	397.836086	699.527206	-176.864125	321.106005	560.475490	-38.896293	314.061615	471.830292	-50.007761	263.021992	399.618907	-52.206107	343.688195	463.731936	-74.272477	207.189433	280.779613	-72.990394	231.739806	286.245232	-153.967356	135.947143	266.389828	-103.498922	417.339990	129.912173	-111.334532	303.267880	165.653610	-38.389853	332.668802	172.868666	-150.932345	415.689500	1095.021817	-461.732756	488.258507	1048.648879	-472.031298	515.109950	1070.913368	-460.589618	527.958524	969.186530	-480.990627	608.259007	863.562561	-475.316209	613.312016	843.580547	-346.584028	457.135428	780.262676	-485.197866	398.752815	723.274940	-458.430663	311.342124	700.983931	-446.432363	416.800992	699.101611	-434.606842	199.759595	644.518715	-419.710173	238.126702	638.414428	-330.295339	123.300961	659.021769	-368.207921	332.799111	433.443645	-351.615128	263.662182	498.718642	-313.399137	235.376918	498.607549	-427.994585	-213.623045	946.528624	-229.531447	-6.052808	84.010986	-435.023822	-11.451225	81.024050	-34.523923	
503	2.5150	790.356612	1482.560595	-42.408025	776.679615	1526.745472	-376.583846	707.509425	1589.711905	-203.712453	752.007230	1422.240670	-214.466035	654.971233	1236.077025	83.189969	751.361844	985.031506	4.990771	675.671940	1260.353920	-476.497897	748.652198	974.387814	-425.822163	200.928359	1274.830089	-213.384476	372.161980	1311.033740	-396.442658	380.556351	1271.342610	-36.960765	391.808230	1235.885081	-363.051951	406.350005	1204.607892	-89.621542	236.128489	1314.015624	-162.941962	233.769688	1325.730055	-244.728917	297.421352	1157.023013	-36.514779	320.029778	1210.268983	-427.952972	317.739235	1005.179041	-23.326699	359.352573	926.766998	-22.891426	361.245518	841.704191	-36.158953	395.092743	936.257951	-27.074495	377.340569	717.669463	-68.129533	392.041574	700.572759	-177.739349	316.459687	561.635179	-39.321125	310.137970	472.999091	-50.118449	259.538786	400.324098	-52.190349	339.835286	465.002336	-74.336595	204.925021	280.968775	-72.805233	229.866752	286.401543	-153.444486	133.836235	267.716220	-103.344917	413.392420	127.671725	-111.311728	299.818829	164.592144	-38.360403	329.171309	171.614604	-150.964041	416.157928	1097.806695	-461.320463	488.642551	1051.294443	-471.295479	515.623879	1073.504396	-459.798947	528.241997	971.668679	-479.934871	609.016274	866.120522	-473.676105	614.188045	846.498299	-344.828311	458.536498	782.081733	-484.210813	400.316076	724.903547	-457.616308	313.057560	702.049572	-445.923675	418.352903	700.865448	-433.599373	201.481760	645.053097	-419.760367	239.558780	639.627183	-330.147245	124.575171	658.590413	-368.504706	337.183878	436.285621	-351.671216	266.513636	500.687480	-313.456482	238.878719	499.891263	-428.029706	-213.657952	946.508277	-229.556640	-6.054484	84.019016	-435.054979	-11.445956	81.015675	-34.520021	
504	2.5200	792.064175	1483.843716	-45.328930	777.868040	1527.211566	-379.563953	709.277184	1590.942182	-206.674208	753.184248	1423.502796	-216.883622	657.554931	1237.001923	80.281942	751.928848	984.506591	5.004648	676.364611	1260.261084	-477.733850	748.583951	974.431318	-425.408951	201.622501	1277.907648	-212.720083	371.822110	1313.654332	-396.535470	382.500403	1273.834785	-37.259656	391.842621	1238.489064	-362.837685	407.457751	1207.030373	-90.089108	237.208468	1316.700503	-162.104115	234.594619	1328.811146	-244.042114	297.337352	1158.856185	-36.761873	320.532224	1213.740202	-427.764226	315.909996	1007.195369	-23.625111	356.654201	928.302082	-23.346455	357.507112	843.203832	-36.573269	392.665698	937.427861	-27.744086	371.747537	719.267227	-69.033177	386.288685	701.854886	-178.657711	311.841391	563.064683	-39.719359	306.028000	474.135846	-50.417118	256.294204	401.277965	-52.168522	335.723646	466.248283	-74.603715	202.769781	281.599931	-72.460756	228.212547	286.755534	-152.921329	132.009081	269.385419	-103.146610	409.453436	125.263345	-111.251505	296.422889	163.665803	-38.334219	325.865407	170.554648	-150.898281	416.640226	1100.655013	-460.917746	489.124963	1053.913545	-470.574728	516.133172	1076.114834	-458.954655	528.504391	974.225356	-478.911609	609.779898	868.799014	-471.919575	614.793448	849.307119	-343.048648	459.886494	783.883759	-483.108700	401.838383	726.335701	-456.791690	314.614233	703.123654	-445.522011	419.817675	702.627801	-432.529986	203.201439	645.554059	-419.734931	240.926854	640.742311	-329.984540	125.611528	658.229494	-368.668845	341.614016	438.876326	-351.601805	269.802744	502.432380	-313.332764	242.375672	501.140259	-428.171777	-213.679229	946.532290	-229.627770	-6.057082	84.033583	-435.036715	-11.463167	81.041046	-34.528851	
505	2.5250	793.709611	1485.026697	-48.277783	779.059375	1527.689170	-382.622395	711.065798	1592.245660	-209.714995	754.459604	1424.648079	-219.369677	659.999783	1237.933319	77.567277	752.484340	983.971959	5.018527	676.952651	1260.381407	-479.716659	748.556721	974.481923	-425.033264	202.384288	1281.072324	-212.060808	371.478799	1316.394021	-396.565282	384.425044	1276.255106	-37.555557	391.825547	1241.407092	-362.672018	408.549891	1209.481466	-90.538062	238.389211	1319.576019	-160.710956	235.267854	1331.968930	-243.172120	297.236703	1160.884288	-36.978364	321.242911	1217.392423	-427.560157	314.140690	1009.329675	-23.946816	354.015538	929.982268	-23.752358	353.836924	844.896866	-36.954994	390.101870	938.725447	-28.379369	366.719457	720.989977	-69.777407	380.505167	703.423376	-179.624880	307.411542	564.701864	-40.058833	302.512005	476.010734	-50.185665	253.142163	402.440660	-52.035346	332.494294	468.259487	-74.187818	200.941021	282.338656	-72.214489	226.725312	287.350876	-152.380177	130.467159	271.340969	-103.010583	405.488761	122.956506	-111.235938	293.022323	162.808287	-38.305119	322.463661	169.507398	-150.969982	417.238161	1103.587025	-460.542738	489.594956	1056.593535	-469.803204	516.758802	1078.742842	-458.000675	528.778999	976.760831	-477.770342	610.536768	871.423678	-470.032926	615.332866	852.124001	-340.967119	461.166610	785.655848	-481.859364	403.295728	727.807450	-455.793016	316.101877	704.172963	-445.003484	421.201546	704.293211	-431.435636	204.817183	645.906046	-419.744788	241.886946	641.531329	-329.906375	126.675999	657.563868	-368.908019	345.934382	441.682669	-351.644928	273.446324	504.000068	-313.085494	245.931164	502.311326	-428.242995	-213.723224	946.535865	-229.684144	-6.068075	84.030046	-435.035326	-11.467601	81.052701	-34.535138	
